<svg xmlns="http://www.w3.org/2000/svg" viewBox="0 0 427.57 889.69"><defs><style>.cls-1,.cls-2,.cls-3,.cls-4{fill:none;stroke-miterlimit:10;}.cls-1{stroke:#000;}.cls-2,.cls-3,.cls-4{stroke:#007aff;}.cls-3{stroke-dasharray:6.08 4.05;}.cls-4{stroke-dasharray:6 4;}</style></defs><g id="Layer_2" data-name="Layer 2"><g id="Umriss"><path class="cls-1" d="M418,412l-.53-.57c-6.06-6.51-11.83-16.35-12.47-17.43-5.41-9-13.93-7.74-23-15-7.85-6.28-7.4-12-17-46-9.07-32.1-13.92-42.8-17-49a178.14,178.14,0,0,0-13-22q-1.05-17.46-3-36-.93-8.64-2-17c1.37-9.6,2.31-27-6-45-4.52-9.79-9.45-20.46-19-23-4.34-1.15-9.44-.54-18-4-4-1.61-3.74-2.06-8-4-11.79-5.36-16.08-3-26-8-3.85-1.94-8.41-4.09-11-9-4-7.6-.5-16.24.5-18.5l-.2,0c.55-.87.94-1.57,1.2-2,1.44-2.58,2.91-5.83,4.5-18,1.53-.4,3.65-4.13,4.57-7,1.4-4.33-.42-5.22,1-10,1.13-3.82,3-5.77,2-8a4.14,4.14,0,0,0-2-2,4.57,4.57,0,0,0-2.94,0c1.49-18.27,1.58-28.4-2.13-34C238,.56,214.9.48,212.54.5c-3.22,0-22.39.23-33,14-6.12,7.93-6.24,18-4.83,36.09a1.4,1.4,0,0,0-.17-.09,4.55,4.55,0,0,0-3,0,4.09,4.09,0,0,0-2,2c-1,2.23.86,4.18,2,8,1.41,4.78-.4,5.67,1,10,1,3,3.2,6.89,4.75,7,1.23,8.66,3.1,14.86,7.25,21,1,2.09,4.45,9.92,1,17-2.23,4.57-6.26,6.6-11,9-9.93,5-14.22,2.64-26,8-4.27,1.94-4,2.39-8,4-8.57,3.46-13.67,2.85-18,4-9.56,2.54-14.49,13.21-19,23-8.32,18-7.37,35.4-6,45q-1.08,8.37-2,17-2,18.52-3,36a176.88,176.88,0,0,0-13,22c-3.09,6.2-7.94,16.9-17,49-9.6,34-9.15,39.72-17,46-9.08,7.26-17.6,6-23,15-.65,1.08-6.41,10.92-12.48,17.43l-.52.57c-8.17,8.78-9.28,9.79-9,11,.38,1.72,3.37,3.15,6,3,4.68-.27,6.05-5.43,14-11a40.53,40.53,0,0,1,5-3c-.23,4-.81,14.57-1,18-.82,14.67-.81,14.83-1,16a103.77,103.77,0,0,0-1,11c-.26,4.2-.24,6.12,1,7,1.87,1.34,5.3-.59,6-1a7.57,7.57,0,0,0,1,6c.4.55,1.46,2,3,2s2.47-1.31,3-2c1.7-2.23,1.71-4.6,2-8,.22-2.68.78-5.32,1-8a64.6,64.6,0,0,1,4-17,81.9,81.9,0,0,1,0,15c-.39,4.06-1.53,12.7,1,15a4.06,4.06,0,0,0,2,1,4.1,4.1,0,0,0,3-1c1.25-1,1.52-2.7,2-6,.55-3.84.89-6.22,1-7a3.85,3.85,0,0,0,2,4c1.79.79,3.6-.68,4-1,2.5-2,2-5.66,2-6,.38-3.12,1-8,2-14,1.48-9.22,2.53-13.62,4-22,.81-4.64,1.93-11.5,3-20,5.49-8.19,12.68-19.06,21-32,13.76-21.42,17.24-27.74,19-31a266.27,266.27,0,0,0,16-36c.39-7.25,1-14.94,2-23,.84-7,1.86-13.69,3-20a195.37,195.37,0,0,0,3,23c3.32,17.49,6.69,22.45,8,36,.79,8.19.19,14.46-1,27-1.55,16.29-3.67,23.32-6,38a373.65,373.65,0,0,0-4,41,438.6,438.6,0,0,0,1,64c2.23,23.26,8.32,60.65,27,106,1,5.2,2.15,12.38,3,21a174.82,174.82,0,0,1,1,27c-.71,12.59-3.09,17.93-5,28-4.06,21.34-1.25,38.79,2,59a287.44,287.44,0,0,0,9,38c5.61,19,10.25,28.71,13,48,2.17,15.29,1,21.38,0,25s-4.61,12.84-9,22a42.3,42.3,0,0,0-3,10c-.53,3-1.25,7.93,1,10a3.61,3.61,0,0,0,2,1,4,4,0,0,0,3-1c-.6,3.12.75,6,3,7a5.39,5.39,0,0,0,4,0,5.14,5.14,0,0,0,2,3,5.56,5.56,0,0,0,6,0,4.27,4.27,0,0,0,8,2,10.19,10.19,0,0,0,5,2c.8.09,4.65.43,7-2,1.92-2,2-4.76,2-6a169.81,169.81,0,0,0-1-24c-.65-6.09.31-2.81,0-24a157.67,157.67,0,0,0-1-18c-.73-5.88-1.37-7.81-2-12-1-6.87-.65-10.45,0-25,.79-17.79,1.18-26.68,1-32a132.7,132.7,0,0,1,0-18c.51-6.5,1.27-8.89,2-14a119.85,119.85,0,0,0-1-37c-1.42-7.93-2.87-11.12-3-19a103.48,103.48,0,0,1,1-14c1.2-10.35,2.64-18,3-20,1.72-9.53,1.82-18.35,2-36,.1-9.79-.1-13.35-1-44-.9-30.15-1-36.17-1-43,0-16.5.4-28.59.5-31.5q0-1.54.09-3.63a23.65,23.65,0,0,0,3.29-.38c0,1.77.08,3.28.12,4.51.09,2.91.53,15,.5,31.5,0,6.83-.11,12.85-1,43-.91,30.65-1.1,34.21-1,44,.18,17.65.27,26.47,2,36,.36,2,1.8,9.65,3,20a105.44,105.44,0,0,1,1,14c-.14,7.88-1.58,11.07-3,19a119.52,119.52,0,0,0-1,37c.72,5.11,1.48,7.5,2,14a134.36,134.36,0,0,1,0,18c-.19,5.32.2,14.21,1,32,.64,14.55,1,18.13,0,25-.64,4.19-1.28,6.12-2,12a153.2,153.2,0,0,0-1,18c-.32,21.19.64,17.91,0,24a166.87,166.87,0,0,0-1,24c0,1.24.07,4,2,6,2.35,2.43,6.19,2.09,7,2a10.24,10.24,0,0,0,5-2,4.27,4.27,0,0,0,8-2,5.56,5.56,0,0,0,6,0,5.25,5.25,0,0,0,2-3,5.39,5.39,0,0,0,4,0c2.25-1,3.59-3.88,3-7a4,4,0,0,0,3,1,3.69,3.69,0,0,0,2-1c2.24-2.07,1.52-7,1-10a42.3,42.3,0,0,0-3-10c-4.39-9.16-8-18.5-9-22s-2.18-9.71,0-25c2.74-19.29,7.38-29,13-48a290.68,290.68,0,0,0,9-38c3.25-20.21,6-37.66,2-59-1.92-10.07-4.3-15.41-5-28a172.32,172.32,0,0,1,1-27c.84-8.62,2-15.8,3-21,18.67-45.35,24.76-82.74,27-106a440.08,440.08,0,0,0,1-64,376.13,376.13,0,0,0-4-41c-2.34-14.68-4.45-21.71-6-38-1.2-12.54-1.79-18.81-1-27,1.3-13.55,4.67-18.51,8-36a199.8,199.8,0,0,0,3-23c1.13,6.31,2.15,13,3,20,1,8.06,1.61,15.75,2,23a265,265,0,0,0,16,36c1.75,3.26,5.23,9.58,19,31,8.31,12.94,15.51,23.81,21,32,1.06,8.5,2.18,15.36,3,20,1.47,8.38,2.51,12.78,4,22,1,6,1.61,10.88,2,14-.05.34-.51,4,2,6,.39.32,2.2,1.79,4,1a3.86,3.86,0,0,0,2-4c.11.78.44,3.16,1,7,.47,3.3.75,5,2,6a3.54,3.54,0,0,0,5,0c2.52-2.3,1.38-10.94,1-15a80.13,80.13,0,0,1,0-15,65.43,65.43,0,0,1,4,17c.22,2.68.77,5.32,1,8,.28,3.4.29,5.77,2,8,.52.69,1.55,2,3,2s2.59-1.45,3-2a7.66,7.66,0,0,0,1-6c.7.41,4.12,2.34,6,1,1.24-.88,1.26-2.8,1-7a109.42,109.42,0,0,0-1-11c-.19-1.17-.19-1.33-1-16-.19-3.43-.78-14-1-18a42.08,42.08,0,0,1,5,3c7.95,5.57,9.31,10.73,14,11,2.63.15,5.61-1.28,6-3C427.31,421.79,426.2,420.78,418,412Z"/></g><g id="Dermatome_Lines" data-name="Dermatome Lines"><path class="cls-2" d="M131,421q.26,1.39.57,2.94"/><path class="cls-3" d="M132.44,427.91A209.88,209.88,0,0,0,140,454c3.1,8.55,6.81,17.8,21,43,22.05,39.16,22.48,38.13,28,50,7.41,16,12.88,28,15,45,1.14,9.22,0,9-1,36-1.51,42.69.93,58.78,2,65a196.87,196.87,0,0,0,4.56,20.19"/><path class="cls-2" d="M210.17,715.13c.3,1,.59,2,.87,2.87"/><path class="cls-4" d="M135,499q6.5,19.5,13,39a180.93,180.93,0,0,1,14,40c4.81,21.72,2.42,30.29,7,58,2.85,17.3,3.87,14.46,10,43,1.08,5.06,6.36,29.88,11,63,1.08,7.77,2.72,22.51,6,52,3.8,34.25,4.65,43.94,5,48,1.67,19.66,2.53,35.89,3,47"/><path class="cls-4" d="M178.54,863.5c1-2.12,2.41-5.21,4-9,.74-1.77,4.42-10.56,6-16,2.91-10,1.57-18.73,0-29-1.16-7.55-1.9-7.64-7-27-4.86-18.42-4.5-19.51-7-27a142.12,142.12,0,0,0-13-28"/><path class="cls-4" d="M211,529a344.58,344.58,0,0,0-18-38c-8.41-15.26-14.88-24.26-28-44-7.33-11-18.09-27.42-31-48"/><path class="cls-2" d="M131,421q.26,1.39.57,2.94"/><path class="cls-3" d="M132.44,427.91A209.88,209.88,0,0,0,140,454c3.1,8.55,6.81,17.8,21,43,22.05,39.16,22.48,38.13,28,50,7.41,16,12.88,28,15,45,1.14,9.22,0,9-1,36-1.51,42.69.93,58.78,2,65a196.87,196.87,0,0,0,4.56,20.19"/><path class="cls-2" d="M210.17,715.13c.3,1,.59,2,.87,2.87"/><path class="cls-4" d="M135,499q6.5,19.5,13,39a180.93,180.93,0,0,1,14,40c4.81,21.72,2.42,30.29,7,58,2.85,17.3,3.87,14.46,10,43,1.08,5.06,6.36,29.88,11,63,1.08,7.77,2.72,22.51,6,52,3.8,34.25,4.65,43.94,5,48,1.67,19.66,2.53,35.89,3,47"/><path class="cls-4" d="M178.54,863.5c1-2.12,2.41-5.21,4-9,.74-1.77,4.42-10.56,6-16,2.91-10,1.57-18.73,0-29-1.16-7.55-1.9-7.64-7-27-4.86-18.42-4.5-19.51-7-27a142.12,142.12,0,0,0-13-28"/><path class="cls-4" d="M211,529a344.58,344.58,0,0,0-18-38c-8.41-15.26-14.88-24.26-28-44-7.33-11-18.09-27.42-31-48"/><path class="cls-4" d="M194,442a214.11,214.11,0,0,0-16-18c-12.54-12.59-19.26-16.17-28-27a100.39,100.39,0,0,1-13-21"/><path class="cls-2" d="M296,421l-.57,2.94"/><path class="cls-3" d="M294.63,427.91A211.37,211.37,0,0,1,287,454c-3.11,8.55-6.81,17.8-21,43-22.06,39.16-22.49,38.13-28,50-7.42,16-12.89,28-15,45-1.15,9.22.05,9,1,36,1.5,42.69-.94,58.78-2,65a196.56,196.56,0,0,1-4.57,20.19"/><path class="cls-2" d="M216.91,715.13c-.31,1-.6,2-.87,2.87"/><path class="cls-4" d="M292,499q-6.51,19.5-13,39a180.42,180.42,0,0,0-14,40c-4.82,21.72-2.43,30.29-7,58-2.86,17.3-3.88,14.46-10,43-1.09,5.06-6.37,29.88-11,63-1.09,7.77-2.73,22.51-6,52-3.81,34.25-4.66,43.94-5,48-1.68,19.66-2.54,35.89-3,47"/><path class="cls-4" d="M248.54,863.5c-1-2.12-2.42-5.21-4-9-.75-1.77-4.43-10.56-6-16-2.91-10-1.58-18.73,0-29,1.15-7.55,1.9-7.64,7-27,4.85-18.42,4.49-19.51,7-27a141,141,0,0,1,13-28"/><path class="cls-4" d="M216,529a340.89,340.89,0,0,1,18-38c8.4-15.26,14.87-24.26,28-44,7.32-11,18.08-27.42,31-48"/><path class="cls-4" d="M231.54,444.5A234.9,234.9,0,0,1,249,424c12-12.55,18.48-16.44,27.5-27.5A121,121,0,0,0,290,376"/><path class="cls-4" d="M141.54,356.5a71.37,71.37,0,0,1,16,11c5.31,4.88,7,8,20,24,6.77,8.35,7.79,9.54,10,11,6.67,4.42,13.44,4.72,22,5,11.86.39,21.27.69,30-5,4.09-2.67,2.23-2.87,14-16a205.53,205.53,0,0,1,19-19,158.28,158.28,0,0,1,13-10"/><path class="cls-4" d="M142.54,340.5a67.69,67.69,0,0,1,12,7c4.49,3.29,7.35,6.24,20,20,8.66,9.42,9.5,10.4,12,12,6.67,4.27,13,5.13,20,6,12.18,1.52,23.53,2.94,34-3,2.3-1.3,7.2-6.54,17-17,5.83-6.23,9-10,15-15a103.24,103.24,0,0,1,11-8"/><path class="cls-4" d="M143.54,325.5a149.7,149.7,0,0,1,13,8c10.78,7.42,12.81,10.9,21,16a69.29,69.29,0,0,0,49,10c5.56-.83,16.82-2.63,28-10,4.74-3.12,6.29-5.15,16-12,4.94-3.48,9.13-6.2,12-8"/><path class="cls-4" d="M283.54,313.5c-3,1.75-7.43,4.27-13,7-9.79,4.78-19.87,9.71-33,12-7,1.23-12.36,1.15-23,1-13.33-.19-20.68-.29-30-3-3.66-1.06-10.16-4.05-23-10-7.12-3.29-13-6.07-17-8"/><path class="cls-4" d="M141.54,299.5a125.78,125.78,0,0,0,17,7c2.56.85,10.66,3.42,28,6,10.93,1.63,18.12,2.7,28,3,9.69.3,24.21.63,42-4a129.71,129.71,0,0,0,30-12"/><path class="cls-4" d="M137.54,281.5a145.58,145.58,0,0,0,20,8c15.72,5,28.1,6,41,7,15.35,1.23,26.16.71,41,0,19.94-.95,26.87-2.65,33-5a74.33,74.33,0,0,0,18-10"/><path class="cls-4" d="M133.54,261.5c5,2,11.81,4.46,20,7a214.38,214.38,0,0,0,27,7c12.25,2.18,21,2.12,38,2a284.7,284.7,0,0,0,34-2c17.16-2.18,24.46-4.95,29-7a76.69,76.69,0,0,0,15-9"/><path class="cls-4" d="M132.54,248.5a138.57,138.57,0,0,0,15,4c9.94,2.07,19.27,2.87,53,3,9.24,0,7,0,18,0,29.43.1,32.57.61,40,0a117.54,117.54,0,0,0,36-9"/><path class="cls-4" d="M134.54,231.5c5.57.95,13.87,2.19,24,3,18.68,1.5,25.24.07,47,0,30.68-.09,33.29,2.71,53,1a195.37,195.37,0,0,0,34-6"/><path class="cls-4" d="M134.54,220.5a62.73,62.73,0,0,1,13-6,65.77,65.77,0,0,1,15-3c8-.69,13.11.26,20,1,6,.65,13,.77,27,1,15.26.26,33,.55,52-1a61.05,61.05,0,0,1,19,1,59.22,59.22,0,0,1,14,5"/><path class="cls-4" d="M134.54,205.5a76.09,76.09,0,0,1,16-6c10.13-2.54,17.76-2.2,29-2h33c14.33,0,28.67.46,43,0,5.88-.19,11.86-.46,20,1a78.87,78.87,0,0,1,19,6"/><path class="cls-4" d="M128.54,194.5a46.56,46.56,0,0,1,14-9c8.65-3.54,16.12-3.39,29-3,19.66.6,24.51.86,30,1,10.2.26,26.47-.16,59-1a58.9,58.9,0,0,1,22,3,56.32,56.32,0,0,1,15,8"/><path class="cls-4" d="M215.54,166.5c-4.31.07-10.93.13-19,0-19-.29-22-1.22-32-1-19.1.42-28.65.63-37,7-9.9,7.55-13,19.42-15,27-2,7.43-.69,7.86-2,27-.67,9.64-1,9.67-4,39-.88,8.53-1.57,15.5-2,20-3.37,6.24-7.87,14.77-13,25-4,8-8.43,16.8-13,27-4.48,10-10.22,23.8-16,41,11.39-11.84,20.44-22.2,27-30,15.72-18.7,19.12-25.07,21-29a106.35,106.35,0,0,0,9-31c1.71-11.29.47-13.73,3-35a148.8,148.8,0,0,1,3-18,135,135,0,0,1,6-19"/><path class="cls-4" d="M44.54,431.5a56.61,56.61,0,0,0,4-9c3.1-9.06,1.76-12.83,5-25a53.9,53.9,0,0,1,4-11,50.13,50.13,0,0,1,5-8"/><path class="cls-4" d="M27.54,411.5a26,26,0,0,0,11-4c2.35-1.55,4.6-4.05,9-9l8-9"/><path class="cls-4" d="M59.54,380.5c.42-4,1.06-9.5,2-16a319.37,319.37,0,0,1,8-41,224.37,224.37,0,0,1,14-39,212.51,212.51,0,0,1,12-22c.42-4.52,1.09-11.48,2-20,2.44-23,2.93-22.81,4-35,1.34-15.45.9-19.71,3-32,1.49-8.73,2.88-13.4,5-18a57.74,57.74,0,0,1,12-17"/><path class="cls-4" d="M212.54,166.5c4.31.07,10.92.13,19,0,19-.29,22-1.22,32-1,19.1.42,28.64.63,37,7,9.9,7.55,13,19.42,15,27,1.94,7.43.68,7.86,2,27,.66,9.64,1,9.67,4,39,.87,8.53,1.56,15.5,2,20,3.36,6.24,7.86,14.77,13,25,4,8,8.42,16.8,13,27,4.47,10,10.22,23.8,16,41-11.4-11.84-20.45-22.2-27-30-15.73-18.7-19.12-25.07-21-29a106,106,0,0,1-9-31c-1.72-11.29-.48-13.73-3-35a152.84,152.84,0,0,0-3-18,136.33,136.33,0,0,0-6-19"/><path class="cls-4" d="M383.54,431.5a55.71,55.71,0,0,1-4-9c-3.11-9.06-1.77-12.83-5-25a55.12,55.12,0,0,0-4-11,50.86,50.86,0,0,0-5-8"/><path class="cls-4" d="M400.54,411.5a26,26,0,0,1-11-4c-2.36-1.55-4.61-4.05-9-9-3.53-4-6.33-7.12-8-9"/><path class="cls-4" d="M368.54,381.5c-.43-4-1.07-9.5-2-16a321.11,321.11,0,0,0-8-41,225.22,225.22,0,0,0-14-39,214.43,214.43,0,0,0-12-22c-.43-4.52-1.1-11.48-2-20-2.45-23-2.94-22.81-4-35-1.35-15.45-.9-19.71-3-32-1.5-8.73-2.89-13.4-5-18a57.93,57.93,0,0,0-12-17"/><path class="cls-4" d="M147.54,135.5a32.55,32.55,0,0,0,7,5c7.66,4.05,15.36,4.07,24,4,8.81-.07,10.69-1.21,17,0a53.47,53.47,0,0,1,10,3c6.27,2.73,6.65,4.68,10,5,4.74.46,6.11-3.22,13-6,3.83-1.54,8.22-1.69,17-2,12.19-.42,13.24.81,19,0,4.56-.64,11.23-2.44,19-8"/><path class="cls-4" d="M186.54,117.5l8,5c5.42,3.4,6.13,3.86,8,5,8.14,5,12.27,7.4,15,7,2.17-.31,4.78-2.54,10-7,2.71-2.31,3.89-3.66,7-6a61.25,61.25,0,0,1,6-4"/><path class="cls-4" d="M194.54,423.5a46,46,0,0,1,9-3,46.1,46.1,0,0,1,29,3"/><path class="cls-4" d="M203.54,440.5a8.87,8.87,0,0,1,4-3,10,10,0,0,1,6,0,15,15,0,0,1,6,3"/></g></g></svg>