<svg xmlns="http://www.w3.org/2000/svg" viewBox="0 0 427.57 889.69"><defs><style>.cls-1{fill:#413d99;opacity:0.4;}.cls-2{fill:none;stroke:#000;stroke-miterlimit:10;}</style></defs><g id="Layer_2" data-name="Layer 2"><g id="Dermatomes_Highlighted" data-name="Dermatomes Highlighted"><g id="L3_R" data-name="L3 R"><path class="cls-1" d="M208.54,643.5a103.4,103.4,0,0,0-1,14c.14,7.88,1.58,11.07,3,19a119.48,119.48,0,0,1,1,37c-.22,1.53-.43,2.82-.65,4A159.05,159.05,0,0,1,205,693c-1.36-8.5-3.41-25.07-2-65,1-27,2.15-26.78,1-36-2.11-17-7.58-29-15-45-5.51-11.87-5.95-10.84-28-50-10.68-19-15.42-28.9-18.44-36.3-1.29-3.18-2.19-5.67-2.56-6.7a225.58,225.58,0,0,1-9-33c-.19-.9-.38-1.86-.59-2.86,0-.6.06-1.14.09-1.64.39-6.76.77-13.46,1.45-20.81.67,1.08,1.35,2.19,2,3.31,1.51,2.44,5.58,9,10.38,16.53,5.23,8.18,11.08,17.13,20.62,31.47,14.48,21.77,21.62,32.71,28,44,8.14,14.4,13.48,25.72,18,38,.41,1.12.8,2.2,1.17,3.25.1,3.33.21,7,.33,11.25.91,30.65,1.1,34.2,1,44-.18,17.65-.27,26.47-2,36C211.18,625.49,209.74,633.15,208.54,643.5Z"/></g><path class="cls-2" d="M418,412l-.53-.57c-6.06-6.51-11.83-16.35-12.47-17.43-5.41-9-13.93-7.74-23-15-7.85-6.28-7.4-12-17-46-9.07-32.1-13.92-42.8-17-49a178.14,178.14,0,0,0-13-22q-1.05-17.46-3-36-.93-8.64-2-17c1.37-9.6,2.31-27-6-45-4.52-9.79-9.45-20.46-19-23-4.34-1.15-9.44-.54-18-4-4-1.61-3.74-2.06-8-4-11.79-5.36-16.08-3-26-8-3.85-1.94-8.41-4.09-11-9-4-7.6-.5-16.24.5-18.5l-.2,0c.55-.87.94-1.57,1.2-2,1.44-2.58,2.91-5.83,4.5-18,1.53-.4,3.65-4.13,4.57-7,1.4-4.33-.42-5.22,1-10,1.13-3.82,3-5.77,2-8a4.14,4.14,0,0,0-2-2,4.57,4.57,0,0,0-2.94,0c1.49-18.27,1.58-28.4-2.13-34C238,.56,214.9.48,212.54.5c-3.22,0-22.39.23-33,14-6.12,7.93-6.24,18-4.83,36.09a1.4,1.4,0,0,0-.17-.09,4.55,4.55,0,0,0-3,0,4.09,4.09,0,0,0-2,2c-1,2.23.86,4.18,2,8,1.41,4.78-.4,5.67,1,10,1,3,3.2,6.89,4.75,7,1.23,8.66,3.1,14.86,7.25,21,1,2.09,4.45,9.92,1,17-2.23,4.57-6.26,6.6-11,9-9.93,5-14.22,2.64-26,8-4.27,1.94-4,2.39-8,4-8.57,3.46-13.67,2.85-18,4-9.56,2.54-14.49,13.21-19,23-8.32,18-7.37,35.4-6,45q-1.08,8.37-2,17-2,18.52-3,36a176.88,176.88,0,0,0-13,22c-3.09,6.2-7.94,16.9-17,49-9.6,34-9.15,39.72-17,46-9.08,7.26-17.6,6-23,15-.65,1.08-6.41,10.92-12.48,17.43l-.52.57c-8.17,8.78-9.28,9.79-9,11,.38,1.72,3.37,3.15,6,3,4.68-.27,6.05-5.43,14-11a40.53,40.53,0,0,1,5-3c-.23,4-.81,14.57-1,18-.82,14.67-.81,14.83-1,16a103.77,103.77,0,0,0-1,11c-.26,4.2-.24,6.12,1,7,1.87,1.34,5.3-.59,6-1a7.57,7.57,0,0,0,1,6c.4.55,1.46,2,3,2s2.47-1.31,3-2c1.7-2.23,1.71-4.6,2-8,.22-2.68.78-5.32,1-8a64.6,64.6,0,0,1,4-17,81.9,81.9,0,0,1,0,15c-.39,4.06-1.53,12.7,1,15a4.06,4.06,0,0,0,2,1,4.1,4.1,0,0,0,3-1c1.25-1,1.52-2.7,2-6,.55-3.84.89-6.22,1-7a3.85,3.85,0,0,0,2,4c1.79.79,3.6-.68,4-1,2.5-2,2-5.66,2-6,.38-3.12,1-8,2-14,1.48-9.22,2.53-13.62,4-22,.81-4.64,1.93-11.5,3-20,5.49-8.19,12.68-19.06,21-32,13.76-21.42,17.24-27.74,19-31a266.27,266.27,0,0,0,16-36c.39-7.25,1-14.94,2-23,.84-7,1.86-13.69,3-20a195.37,195.37,0,0,0,3,23c3.32,17.49,6.69,22.45,8,36,.79,8.19.19,14.46-1,27-1.55,16.29-3.67,23.32-6,38a373.65,373.65,0,0,0-4,41,438.6,438.6,0,0,0,1,64c2.23,23.26,8.32,60.65,27,106,1,5.2,2.15,12.38,3,21a174.82,174.82,0,0,1,1,27c-.71,12.59-3.09,17.93-5,28-4.06,21.34-1.25,38.79,2,59a287.44,287.44,0,0,0,9,38c5.61,19,10.25,28.71,13,48,2.17,15.29,1,21.38,0,25s-4.61,12.84-9,22a42.3,42.3,0,0,0-3,10c-.53,3-1.25,7.93,1,10a3.61,3.61,0,0,0,2,1,4,4,0,0,0,3-1c-.6,3.12.75,6,3,7a5.39,5.39,0,0,0,4,0,5.14,5.14,0,0,0,2,3,5.56,5.56,0,0,0,6,0,4.27,4.27,0,0,0,8,2,10.19,10.19,0,0,0,5,2c.8.09,4.65.43,7-2,1.92-2,2-4.76,2-6a169.81,169.81,0,0,0-1-24c-.65-6.09.31-2.81,0-24a157.67,157.67,0,0,0-1-18c-.73-5.88-1.37-7.81-2-12-1-6.87-.65-10.45,0-25,.79-17.79,1.18-26.68,1-32a132.7,132.7,0,0,1,0-18c.51-6.5,1.27-8.89,2-14a119.85,119.85,0,0,0-1-37c-1.42-7.93-2.87-11.12-3-19a103.48,103.48,0,0,1,1-14c1.2-10.35,2.64-18,3-20,1.72-9.53,1.82-18.35,2-36,.1-9.79-.1-13.35-1-44-.9-30.15-1-36.17-1-43,0-16.5.4-28.59.5-31.5q0-1.54.09-3.63a23.65,23.65,0,0,0,3.29-.38c0,1.77.08,3.28.12,4.51.09,2.91.53,15,.5,31.5,0,6.83-.11,12.85-1,43-.91,30.65-1.1,34.21-1,44,.18,17.65.27,26.47,2,36,.36,2,1.8,9.65,3,20a105.44,105.44,0,0,1,1,14c-.14,7.88-1.58,11.07-3,19a119.52,119.52,0,0,0-1,37c.72,5.11,1.48,7.5,2,14a134.36,134.36,0,0,1,0,18c-.19,5.32.2,14.21,1,32,.64,14.55,1,18.13,0,25-.64,4.19-1.28,6.12-2,12a153.2,153.2,0,0,0-1,18c-.32,21.19.64,17.91,0,24a166.87,166.87,0,0,0-1,24c0,1.24.07,4,2,6,2.35,2.43,6.19,2.09,7,2a10.24,10.24,0,0,0,5-2,4.27,4.27,0,0,0,8-2,5.56,5.56,0,0,0,6,0,5.25,5.25,0,0,0,2-3,5.39,5.39,0,0,0,4,0c2.25-1,3.59-3.88,3-7a4,4,0,0,0,3,1,3.69,3.69,0,0,0,2-1c2.24-2.07,1.52-7,1-10a42.3,42.3,0,0,0-3-10c-4.39-9.16-8-18.5-9-22s-2.18-9.71,0-25c2.74-19.29,7.38-29,13-48a290.68,290.68,0,0,0,9-38c3.25-20.21,6-37.66,2-59-1.92-10.07-4.3-15.41-5-28a172.32,172.32,0,0,1,1-27c.84-8.62,2-15.8,3-21,18.67-45.35,24.76-82.74,27-106a440.08,440.08,0,0,0,1-64,376.13,376.13,0,0,0-4-41c-2.34-14.68-4.45-21.71-6-38-1.2-12.54-1.79-18.81-1-27,1.3-13.55,4.67-18.51,8-36a199.8,199.8,0,0,0,3-23c1.13,6.31,2.15,13,3,20,1,8.06,1.61,15.75,2,23a265,265,0,0,0,16,36c1.75,3.26,5.23,9.58,19,31,8.31,12.94,15.51,23.81,21,32,1.06,8.5,2.18,15.36,3,20,1.47,8.38,2.51,12.78,4,22,1,6,1.61,10.88,2,14-.05.34-.51,4,2,6,.39.32,2.2,1.79,4,1a3.86,3.86,0,0,0,2-4c.11.78.44,3.16,1,7,.47,3.3.75,5,2,6a3.54,3.54,0,0,0,5,0c2.52-2.3,1.38-10.94,1-15a80.13,80.13,0,0,1,0-15,65.43,65.43,0,0,1,4,17c.22,2.68.77,5.32,1,8,.28,3.4.29,5.77,2,8,.52.69,1.55,2,3,2s2.59-1.45,3-2a7.66,7.66,0,0,0,1-6c.7.41,4.12,2.34,6,1,1.24-.88,1.26-2.8,1-7a109.42,109.42,0,0,0-1-11c-.19-1.17-.19-1.33-1-16-.19-3.43-.78-14-1-18a42.08,42.08,0,0,1,5,3c7.95,5.57,9.31,10.73,14,11,2.63.15,5.61-1.28,6-3C427.31,421.79,426.2,420.78,418,412Z"/></g></g></svg>