<svg xmlns="http://www.w3.org/2000/svg" viewBox="0 0 427.57 889.69"><defs><style>.cls-1,.cls-7{fill:#e8e8e8;}.cls-1,.cls-2,.cls-3,.cls-5,.cls-6,.cls-8{stroke:#000;stroke-miterlimit:10;}.cls-2{fill:#dbdbdb;}.cls-2,.cls-3,.cls-8{stroke-width:0.5px;}.cls-3,.cls-5,.cls-6{fill:none;}.cls-4{opacity:0.1;}.cls-5{stroke-width:0.48px;}.cls-6{stroke-width:0.42px;}.cls-8{fill:#bcbcbc;}.cls-9{opacity:0.05;}</style></defs><g id="Layer_2" data-name="Layer 2"><g id="Human"><path class="cls-1" d="M216,501c0,6.83-.11,12.85-1,43-.91,30.65-1.1,34.21-1,44,.18,17.65.27,26.47,2,36,.36,2,1.8,9.65,3,20a105.44,105.44,0,0,1,1,14c-.14,7.88-1.58,11.07-3,19a119.52,119.52,0,0,0-1,37c.72,5.11,1.48,7.5,2,14a134.36,134.36,0,0,1,0,18c-.19,5.32.2,14.21,1,32,.64,14.55,1,18.13,0,25-.64,4.19-1.28,6.12-2,12a153.2,153.2,0,0,0-1,18c-.32,21.19.64,17.91,0,24a166.87,166.87,0,0,0-1,24c0,1.24.07,4,2,6,2.35,2.43,6.19,2.09,7,2a10.24,10.24,0,0,0,5-2,4.27,4.27,0,0,0,8-2,5.56,5.56,0,0,0,6,0,5.25,5.25,0,0,0,2-3,5.39,5.39,0,0,0,4,0c2.25-1,3.59-3.88,3-7a4,4,0,0,0,3,1,3.69,3.69,0,0,0,2-1c2.24-2.07,1.52-7,1-10a42.3,42.3,0,0,0-3-10c-4.39-9.16-8-18.5-9-22s-2.18-9.71,0-25c2.74-19.29,7.38-29,13-48a290.68,290.68,0,0,0,9-38c3.25-20.21,6-37.66,2-59-1.92-10.07-4.3-15.41-5-28a172.32,172.32,0,0,1,1-27c.84-8.62,2-15.8,3-21,18.67-45.35,24.76-82.74,27-106a440.08,440.08,0,0,0,1-64,376.13,376.13,0,0,0-4-41c-2.34-14.68-4.45-21.71-6-38-1.2-12.54-1.79-18.81-1-27,1.3-13.55,4.67-18.51,8-36a199.8,199.8,0,0,0,3-23c1.13,6.31,2.15,13,3,20,1,8.06,1.61,15.75,2,23a265,265,0,0,0,16,36c1.75,3.26,5.23,9.58,19,31,8.31,12.94,15.51,23.81,21,32,1.06,8.5,2.18,15.36,3,20,1.47,8.38,2.51,12.78,4,22,1,6,1.61,10.88,2,14-.05.34-.51,4,2,6,.39.32,2.2,1.79,4,1a3.86,3.86,0,0,0,2-4c.11.78.44,3.16,1,7,.47,3.3.75,5,2,6a3.54,3.54,0,0,0,5,0c2.52-2.3,1.38-10.94,1-15a80.13,80.13,0,0,1,0-15,65.43,65.43,0,0,1,4,17c.22,2.68.77,5.32,1,8,.28,3.4.29,5.77,2,8,.52.69,1.55,2,3,2s2.59-1.45,3-2a7.66,7.66,0,0,0,1-6c.7.41,4.12,2.34,6,1,1.24-.88,1.26-2.8,1-7a109.42,109.42,0,0,0-1-11c-.19-1.17-.19-1.33-1-16-.19-3.43-.78-14-1-18a42.08,42.08,0,0,1,5,3c7.95,5.57,9.31,10.73,14,11,2.63.15,5.61-1.28,6-3,.27-1.21-.84-2.22-9-11l-.53-.57c-6.06-6.51-11.83-16.35-12.47-17.43-5.41-9-13.93-7.74-23-15-7.85-6.28-7.4-12-17-46-9.07-32.1-13.92-42.8-17-49a178.14,178.14,0,0,0-13-22q-1.05-17.46-3-36-.93-8.64-2-17c1.37-9.59,2.31-27-6-45-4.52-9.79-9.45-20.46-19-23-4.34-1.15-9.44-.54-18-4-4-1.61-3.74-2.06-8-4-11.79-5.35-16.08-3-26-8-3.85-1.94-8.41-4.09-11-9-4-7.6-.5-16.24.5-18.5l-27,2c-.92,252-.69,348.7,0,370C215.63,472.41,216.07,484.5,216,501Z"/><path d="M397.54,463.06c-.56-4.84-1.06-9.7-1.68-14.53L394,434l2.31,14.46c.79,4.82,1.45,9.65,2.18,14.48Z"/><path d="M374.54,454q-.69-11-1.5-22,1.29,11,2.49,22Z"/><path d="M400,412a18.4,18.4,0,0,1-6.06.49,19.54,19.54,0,0,1-6-1.48,19.19,19.19,0,0,1-5.18-3.28A17.71,17.71,0,0,1,379,403a25.24,25.24,0,0,0,9.38,7.09A25.68,25.68,0,0,0,400,412Z"/><path d="M400,431a30.53,30.53,0,0,1-3.67,1.7,34,34,0,0,1-3.88,1.17,31.22,31.22,0,0,1-16.09-.57A31,31,0,0,1,369,430c1.24.52,2.47,1,3.74,1.44a39.33,39.33,0,0,0,19.56,1.68A43.78,43.78,0,0,0,400,431Z"/><path d="M296.54,252.05c-.28-5-.7-9.92-.76-14.89,0-2.49,0-5,.06-7.45s0-5-.09-7.43-.24-4.94-.43-7.41a56.12,56.12,0,0,1-.28-7.45,21,21,0,0,1,2-7.16,27.8,27.8,0,0,1,4-6.26,27.55,27.55,0,0,0-3.9,6.31,20.83,20.83,0,0,0-1.85,7.12,55.54,55.54,0,0,0,.41,7.4c.23,2.48.42,4.95.55,7.43s.22,5,.22,7.45,0,5,.06,7.43c.14,5,.65,9.88,1,14.82Z"/><path class="cls-2" d="M263.54,216.5c3.41-2.07,8.83-.59,10,3,1,3.13-1.45,7.08-5,8-3.14.81-7-.76-8-4C259.71,220.72,261.38,217.81,263.54,216.5Z"/><path class="cls-3" d="M265.13,219.52c1.69-1,4.38-.29,4.95,1.49a3.37,3.37,0,0,1-2.47,4,3.31,3.31,0,0,1-4-2A3.19,3.19,0,0,1,265.13,219.52Z"/><path class="cls-4" d="M227.54,267.5c8.1,2.35,11.5,10.06,16,16s12.27,13.05,27,18c-9.68-.67-16.06-3.59-20-6-8.1-4.95-10.53-10.59-22-20a119.56,119.56,0,0,0-11-8A19.16,19.16,0,0,1,227.54,267.5Z"/><path class="cls-4" d="M253.54,603.5c-.79.12.73,5.13-1,13-2.25,10.19-8.19,17.08-7,18,.82.64,3.6-2.78,5-2,1.62.91-.12,6.65-2,14-2.29,8.92-5,19.6-4,20s6.3-9.26,10-20c1.92-5.58,3.43-10,4-16C259.89,616.08,254.81,603.3,253.54,603.5Z"/><path class="cls-4" d="M229.54,649.5c3,5.7,4.55,8.55,5,10,2.3,7.51.63,15.82-1,16-1.08.12-2.39-3.58-5-11a76.36,76.36,0,0,1-3-10c-1.06-4.82-2.22-12.64-1-13C224.84,641.41,225.41,641.76,229.54,649.5Z"/><path d="M228.54,887.06l-.18-3.9c-.05-1.3-.14-2.59-.12-3.89q0-3.9.3-7.77c0,2.59,0,5.18.2,7.75.06,1.29.24,2.57.37,3.86l.42,3.84Z"/><path d="M236.47,885.19c-.1-2.36-.21-4.73-.29-7.09L236,871l.64,7.06c.24,2.35.52,4.7.78,7.05Z"/><path d="M244.63,882.56A43.65,43.65,0,0,1,245,870a42.89,42.89,0,0,0,.58,12.4Z"/><path d="M251.54,875.09l-.65-4.56c-.1-.76-.28-1.5-.42-2.26L250,866l.68,2.21c.21.74.47,1.47.66,2.22l1.15,4.49Z"/><path class="cls-4" d="M299.54,195.5c-.62-.42-4.52,3.23-7,8a28.88,28.88,0,0,0-3,15c.2,3.1.78,4.56,3,12,3.14,10.54,3.45,14.07,4,14s.76-8.82,0-18c-1-12-2.65-14.73-1-21C297.08,199.61,300.13,195.9,299.54,195.5Z"/><path class="cls-3" d="M220,881a4.85,4.85,0,0,1,5,0c.83.52,2.25,1.78,2,3-.33,1.57-3.18,2.12-5,2-.31,0-3.64-.28-4-2C217.77,882.76,219.22,881.5,220,881Z"/><path class="cls-3" d="M231.54,883.5a2.63,2.63,0,0,1,3,0c.55.39,1.26,1.25,1,2s-1.48.94-2,1c-.9.1-2.69,0-3-1C230.3,884.77,231,883.91,231.54,883.5Z"/><path class="cls-3" d="M239.19,880.75a2.65,2.65,0,0,1,3-.28c.52.3,1.32,1,1.17,1.8s-1.5,1.19-1.88,1.28c-1,.22-2.74.14-3.1-.82C238.11,882,238.71,881.17,239.19,880.75Z"/><path class="cls-5" d="M246.35,878.28a2.55,2.55,0,0,1,2.7-1c.56.15,1.48.62,1.53,1.38s-1.1,1.47-1.44,1.65c-.89.46-2.51.8-3.07,0A2,2,0,0,1,246.35,878.28Z"/><path class="cls-6" d="M253.54,872.5a2.06,2.06,0,0,1,3,0,1.33,1.33,0,0,1,0,1,1.82,1.82,0,0,1-1,1c-.17.08-1.34.65-2,0A1.59,1.59,0,0,1,253.54,872.5Z"/><path class="cls-1" d="M211.54,500.5c0,6.83.1,12.85,1,43,.9,30.65,1.1,34.21,1,44-.18,17.65-.28,26.47-2,36-.36,2-1.8,9.65-3,20a103.48,103.48,0,0,0-1,14c.13,7.88,1.58,11.07,3,19a119.85,119.85,0,0,1,1,37c-.73,5.11-1.49,7.5-2,14a132.7,132.7,0,0,0,0,18c.18,5.32-.21,14.21-1,32-.65,14.55-1,18.13,0,25,.63,4.19,1.27,6.12,2,12a157.67,157.67,0,0,1,1,18c.31,21.19-.65,17.91,0,24a169.81,169.81,0,0,1,1,24c0,1.24-.08,4-2,6-2.35,2.43-6.2,2.09-7,2a10.19,10.19,0,0,1-5-2,4.27,4.27,0,0,1-8-2,5.56,5.56,0,0,1-6,0,5.14,5.14,0,0,1-2-3,5.39,5.39,0,0,1-4,0c-2.25-1-3.6-3.88-3-7a4,4,0,0,1-3,1,3.61,3.61,0,0,1-2-1c-2.25-2.07-1.53-7-1-10a42.3,42.3,0,0,1,3-10c4.39-9.16,8-18.5,9-22s2.17-9.71,0-25c-2.75-19.29-7.39-29-13-48a287.44,287.44,0,0,1-9-38c-3.25-20.21-6.06-37.66-2-59,1.91-10.07,4.29-15.41,5-28a174.82,174.82,0,0,0-1-27c-.85-8.62-2-15.8-3-21-18.68-45.35-24.77-82.74-27-106a438.6,438.6,0,0,1-1-64,373.65,373.65,0,0,1,4-41c2.33-14.68,4.45-21.71,6-38,1.19-12.54,1.79-18.81,1-27-1.31-13.55-4.68-18.51-8-36a195.37,195.37,0,0,1-3-23c-1.14,6.31-2.16,13-3,20-1,8.06-1.61,15.75-2,23a266.27,266.27,0,0,1-16,36c-1.76,3.26-5.24,9.58-19,31-8.32,12.94-15.51,23.81-21,32-1.07,8.5-2.19,15.36-3,20-1.47,8.38-2.52,12.78-4,22-1,6-1.62,10.88-2,14,0,.34.5,4-2,6-.4.32-2.21,1.79-4,1a3.85,3.85,0,0,1-2-4c-.11.78-.45,3.16-1,7-.48,3.3-.75,5-2,6a4.1,4.1,0,0,1-3,1,4.06,4.06,0,0,1-2-1c-2.53-2.3-1.39-10.94-1-15a81.9,81.9,0,0,0,0-15,64.6,64.6,0,0,0-4,17c-.22,2.68-.78,5.32-1,8-.29,3.4-.3,5.77-2,8-.53.69-1.56,2-3,2s-2.6-1.45-3-2a7.57,7.57,0,0,1-1-6c-.7.41-4.13,2.34-6,1-1.24-.88-1.26-2.8-1-7a103.77,103.77,0,0,1,1-11c.19-1.17.18-1.33,1-16,.19-3.43.77-14,1-18a40.53,40.53,0,0,0-5,3c-7.95,5.57-9.32,10.73-14,11-2.63.15-5.62-1.28-6-3-.28-1.21.83-2.22,9-11l.52-.57c6.07-6.51,11.83-16.35,12.48-17.43,5.4-9,13.92-7.74,23-15,7.85-6.28,7.4-12,17-46,9.06-32.1,13.91-42.8,17-49a176.88,176.88,0,0,1,13-22q1-17.46,3-36,.92-8.64,2-17c-1.37-9.59-2.32-27,6-45,4.51-9.79,9.44-20.46,19-23,4.33-1.15,9.43-.54,18-4,4-1.61,3.73-2.06,8-4,11.78-5.35,16.07-3,26-8,4.74-2.4,8.77-4.43,11-9,3.45-7.08,0-14.91-1-17L212,99c.91,252,.68,348.7,0,370C211.94,471.91,211.5,484,211.54,500.5Z"/><path d="M29,462.44c.73-4.83,1.39-9.66,2.18-14.48l2.32-14.46L31.71,448c-.62,4.83-1.11,9.69-1.68,14.53Z"/><path d="M52,453.46q1.18-11,2.5-22-.81,11-1.51,22Z"/><path d="M27.54,411.5a25.65,25.65,0,0,0,11.61-1.91,25.35,25.35,0,0,0,9.39-7.09,17.74,17.74,0,0,1-3.82,4.73,19,19,0,0,1-5.18,3.28A19.47,19.47,0,0,1,33.59,412,18.32,18.32,0,0,1,27.54,411.5Z"/><path d="M27.54,430.5a43.44,43.44,0,0,0,7.69,2.12,39.46,39.46,0,0,0,7.9.52,40.15,40.15,0,0,0,11.66-2.2c1.27-.41,2.51-.92,3.75-1.44a31.29,31.29,0,0,1-7.37,3.3,31.22,31.22,0,0,1-16.09.57,34,34,0,0,1-3.88-1.17A29.69,29.69,0,0,1,27.54,430.5Z"/><path d="M130,251.46c.36-4.94.86-9.87,1-14.82.09-2.47.07-4.94.06-7.43s.08-5,.22-7.45.33-4.95.55-7.43a55.54,55.54,0,0,0,.41-7.4,20.83,20.83,0,0,0-1.85-7.12,27.86,27.86,0,0,0-3.89-6.31,28.11,28.11,0,0,1,4,6.26,20.72,20.72,0,0,1,2,7.16,56.12,56.12,0,0,1-.28,7.45c-.19,2.47-.34,4.94-.43,7.41s-.14,4.95-.09,7.43.11,5,.06,7.45c-.06,5-.48,9.92-.76,14.89Z"/><path class="cls-2" d="M164,216c-3.42-2.07-8.84-.59-10,3-1,3.13,1.44,7.08,5,8,3.13.81,7-.76,8-4A6.46,6.46,0,0,0,164,216Z"/><path class="cls-3" d="M162.44,219c-1.69-1-4.37-.29-4.95,1.49a3.38,3.38,0,0,0,2.48,4,3.31,3.31,0,0,0,4-2A3.19,3.19,0,0,0,162.44,219Z"/><path class="cls-4" d="M200,267c-8.11,2.35-11.51,10.06-16,16s-12.28,13.05-27,18a43.16,43.16,0,0,0,20-6c8.09-4.95,10.52-10.59,22-20a118.2,118.2,0,0,1,11-8A19.16,19.16,0,0,0,200,267Z"/><path class="cls-4" d="M174,603c.79.12-.74,5.13,1,13,2.25,10.19,8.18,17.08,7,18-.83.64-3.61-2.78-5-2-1.63.91.11,6.65,2,14,2.28,8.92,5,19.6,4,20s-6.31-9.26-10-20c-1.92-5.58-3.44-10-4-16C167.68,615.58,172.76,602.8,174,603Z"/><path class="cls-4" d="M198,649c-3,5.7-4.56,8.55-5,10-2.31,7.51-.64,15.82,1,16,1.08.12,2.38-3.58,5-11a79.55,79.55,0,0,0,3-10c1.05-4.82,2.21-12.64,1-13C202.73,640.91,202.16,641.26,198,649Z"/><path d="M198,886.45l.42-3.84c.13-1.29.31-2.57.37-3.86.17-2.57.24-5.16.21-7.75q.28,3.87.29,7.77c0,1.3-.07,2.59-.12,3.89l-.18,3.9Z"/><path d="M190.11,884.61c.26-2.35.54-4.7.78-7.05l.65-7.06-.15,7.1c-.08,2.36-.19,4.73-.29,7.09Z"/><path d="M182,881.9a43.25,43.25,0,0,0,.59-12.4,44,44,0,0,1,.4,12.56Z"/><path d="M175,874.42l1.16-4.49c.18-.75.44-1.48.66-2.22l.68-2.21-.44,2.27c-.14.76-.32,1.5-.42,2.26l-.65,4.56Z"/><path class="cls-4" d="M128,195c.62-.42,4.51,3.23,7,8a29,29,0,0,1,3,15c-.21,3.1-.79,4.56-3,12-3.14,10.54-3.45,14.07-4,14s-.77-8.82,0-18c1-12,2.64-14.73,1-21C130.49,199.11,127.44,195.4,128,195Z"/><path class="cls-3" d="M207.54,880.5a4.85,4.85,0,0,0-5,0c-.84.52-2.26,1.78-2,3,.32,1.57,3.17,2.12,5,2,.31,0,3.63-.28,4-2C209.8,882.26,208.36,881,207.54,880.5Z"/><path class="cls-3" d="M196,883a2.63,2.63,0,0,0-3,0c-.55.39-1.27,1.25-1,2s1.47.94,2,1c.89.1,2.68,0,3-1C197.27,884.27,196.61,883.41,196,883Z"/><path class="cls-3" d="M188.38,880.25a2.65,2.65,0,0,0-3-.28c-.52.3-1.32,1-1.17,1.8s1.5,1.19,1.89,1.28c1,.22,2.73.14,3.09-.82C189.47,881.53,188.86,880.67,188.38,880.25Z"/><path class="cls-5" d="M181.23,877.78a2.57,2.57,0,0,0-2.71-1c-.56.15-1.47.62-1.52,1.38s1.1,1.47,1.43,1.65c.89.46,2.51.8,3.08,0A2,2,0,0,0,181.23,877.78Z"/><path class="cls-6" d="M174,872a2.06,2.06,0,0,0-3,0,1.28,1.28,0,0,0,0,1,1.77,1.77,0,0,0,1,1c.16.08,1.34.65,2,0A1.62,1.62,0,0,0,174,872Z"/><rect class="cls-7" x="209.54" y="112.5" width="9" height="321"/><path class="cls-4" d="M231,452a16.77,16.77,0,0,1-3,9,18,18,0,0,1-8,6,23.21,23.21,0,0,1-4.53,1.49,22.83,22.83,0,0,1-3.47.5,31.22,31.22,0,0,1-4,0c-3.41-.18-5.81-.31-8-2-1.33-1-2.91-2.87-4-8-1.5-7.07-.07-11,0-17a43.13,43.13,0,0,0-3-16,39.13,39.13,0,0,0,18,3c8.79-.72,14.77-4.51,17-2,1.72,1.93-1.46,4.59-1,11C227.52,444.66,231.23,445.72,231,452Z"/><path class="cls-7" d="M187.54,421.5a16.74,16.74,0,0,1,7,7c2.25,4.59.69,7.92,1,18,.21,7.06.31,10.59,2,13,3.93,5.63,13.1,7,20,5,1.93-.57,8.25-2.43,11-8,3.77-7.65-3.2-14.17,0-24a21.15,21.15,0,0,1,6-9"/><path d="M187.54,421.5a17.7,17.7,0,0,1,5.5,4.39,12.8,12.8,0,0,1,2.87,6.45,50.69,50.69,0,0,1,0,7.08c-.08,2.34-.09,4.69,0,7s.17,4.7.36,7,.56,4.66,2.07,6.34a12.93,12.93,0,0,0,5.53,3.82,21.17,21.17,0,0,0,6.74,1.26,23.08,23.08,0,0,0,6.82-.85,21.48,21.48,0,0,0,6.27-2.81A14.83,14.83,0,0,0,226.3,459a12.74,12.74,0,0,0,1.9-2.81,12,12,0,0,0,1-6.64c-.28-2.3-.9-4.57-1.33-6.9a21.42,21.42,0,0,1-.25-7.1,20,20,0,0,1,6.94-12.05,23.43,23.43,0,0,0-4.31,5.52,18.22,18.22,0,0,0-2.14,6.6,21.15,21.15,0,0,0,.38,6.91c.46,2.29,1.14,4.55,1.47,6.92a12.48,12.48,0,0,1-1,7.12,14,14,0,0,1-2,3,15.16,15.16,0,0,1-2.74,2.38,22.59,22.59,0,0,1-6.51,3,24.15,24.15,0,0,1-7.12.93,22.17,22.17,0,0,1-7.05-1.37,13.82,13.82,0,0,1-5.9-4.14,8,8,0,0,1-1.66-3.28,20.79,20.79,0,0,1-.56-3.55c-.19-2.37-.22-4.72-.27-7.07s0-4.72.13-7.08a51.26,51.26,0,0,0,.14-7,12.36,12.36,0,0,0-2.59-6.34A18.52,18.52,0,0,0,187.54,421.5Z"/><path class="cls-4" d="M240.17,108.62a26.73,26.73,0,0,1,2.37-11.12q-9.3.7-18.6,1.38L223,99a94.21,94.21,0,0,1-23,0l-1.79-.25-13.71-.25a25.5,25.5,0,0,1,2.47,9.28,60.66,60.66,0,0,0,9,8.22c5.31,3.91,11.49,8.46,20,8,8.23-.44,13.79-5.31,18-9A55.48,55.48,0,0,0,240.17,108.62Z"/><path class="cls-1" d="M250.61,50.53a4.56,4.56,0,0,1,3,0,4.14,4.14,0,0,1,2,2c1,2.23-.87,4.18-2,8-1.42,4.78.4,5.67-1,10-1,3.12-3.46,7.33-5,7C244.06,76.77,246,52.06,250.61,50.53Z"/><path class="cls-1" d="M174.54,50.5a4.55,4.55,0,0,0-3,0,4.09,4.09,0,0,0-2,2c-1,2.23.86,4.18,2,8,1.41,4.78-.4,5.67,1,10,1,3.12,3.46,7.33,5,7C181.09,76.74,179.14,52,174.54,50.5Z"/><path class="cls-1" d="M249.54,63.5c-2.18,24.13-4.11,28.62-6,32-2,3.55-13.16,22.4-31,22-15.38-.34-25.12-14.74-28-19-6.44-9.52-7.38-19.14-9-38-2.11-24.48-3.16-36.72,4-46,10.61-13.77,29.78-14,33-14,2.36,0,25.46.06,36,16C253.05,23.33,251.94,36.82,249.54,63.5Z"/><path d="M202.54,75.5a7,7,0,0,0,1.35,3.14,2,2,0,0,0,1.33.69,11.65,11.65,0,0,0,1.66-.29,5.63,5.63,0,0,1,1.92,0,4.33,4.33,0,0,1,1.82.78,6.92,6.92,0,0,0,1.34.94,2.61,2.61,0,0,0,1.43.17c.92-.11,1.85-1,3.07-1.49a7.13,7.13,0,0,1,3.74-.34,7.73,7.73,0,0,0,1.64.24,2.2,2.2,0,0,0,1.33-.73,6.75,6.75,0,0,0,1.37-3.13,6.3,6.3,0,0,1-1,3.48,2.76,2.76,0,0,1-1.63,1.1,6.9,6.9,0,0,1-1.87-.11,6.67,6.67,0,0,0-3.23.46,9.84,9.84,0,0,0-1.47.82,4.83,4.83,0,0,1-1.81.79,3.74,3.74,0,0,1-2-.27,6.58,6.58,0,0,1-1.54-1.1,4.24,4.24,0,0,0-3-.78,8,8,0,0,1-1.85.15A2.51,2.51,0,0,1,203.48,79,6.45,6.45,0,0,1,202.54,75.5Z"/><path d="M184.54,50.5A11.14,11.14,0,0,1,188.08,46a13.81,13.81,0,0,1,5.33-2.49,14.7,14.7,0,0,1,5.83-.16,12.61,12.61,0,0,1,5.3,2.17c-1.93,0-3.7.06-5.44.19a31.45,31.45,0,0,0-5,.72A27.31,27.31,0,0,0,189.3,48,46.92,46.92,0,0,0,184.54,50.5Z"/><path d="M244,50.34a47.09,47.09,0,0,0-4.76-2.52,28.17,28.17,0,0,0-4.78-1.58,32.63,32.63,0,0,0-5-.72c-1.74-.13-3.51-.14-5.44-.18a12.61,12.61,0,0,1,5.3-2.17,14.51,14.51,0,0,1,5.83.15,14.1,14.1,0,0,1,5.33,2.49A11.17,11.17,0,0,1,244,50.34Z"/><ellipse cx="196.54" cy="54" rx="3" ry="2.5"/><path d="M202,52a20.39,20.39,0,0,0-12,3,10.74,10.74,0,0,1,12-3Z"/><ellipse cx="231.04" cy="52.5" rx="3" ry="2.5"/><path d="M225.54,50.5a10.75,10.75,0,0,1,12,3,20.44,20.44,0,0,0-12-3Z"/><path d="M201.54,90.5c4,.28,8,.52,12,.5s8-.23,12-.5a46.22,46.22,0,0,1-12,1.5A47,47,0,0,1,201.54,90.5Z"/><path class="cls-4" d="M204,430c-.47,5.61-.78,10.65-1,15-.5,9.68-.37,13,2,15,2.15,1.81,5.53,2,6,2a9.18,9.18,0,0,0,5-1c.79-.45,2.73-1.81,4-7,1-4.28.7-7.42,0-15-.19-2-.55-5.84-1-11Z"/><path class="cls-7" d="M203.54,426.5c.15,7.64.09,13.81,0,18-.18,8.29-.51,11.67,2,14a8.76,8.76,0,0,0,10,1c3-1.86,3.5-5.61,4-9a25.63,25.63,0,0,0,0-7,53.14,53.14,0,0,1,1-17"/><path d="M203.54,426.5c.19,6.46.33,12.93.35,19.4l0,4.84a19.69,19.69,0,0,0,.43,4.7,5.52,5.52,0,0,0,2.62,3.49,8.59,8.59,0,0,0,4.37,1.19,7.22,7.22,0,0,0,4.29-1.22,7.12,7.12,0,0,0,2.54-3.69,26.23,26.23,0,0,0,1-4.66,25.15,25.15,0,0,0,.27-4.75c-.06-1.58-.31-3.2-.35-4.83a46.51,46.51,0,0,1,.05-4.87,58.61,58.61,0,0,1,1.48-9.6,65,65,0,0,0-1,9.62c-.05,1.61,0,3.22.09,4.82s.37,3.17.49,4.82a22.5,22.5,0,0,1-.18,4.92,27.33,27.33,0,0,1-1,4.82,7.55,7.55,0,0,1-7.7,5.62,9.59,9.59,0,0,1-4.86-1.37,7.19,7.19,0,0,1-1.92-1.73,6.68,6.68,0,0,1-1.08-2.35,20.71,20.71,0,0,1-.41-4.93c0-1.63.07-3.24.13-4.86.11-3.23.11-6.45.17-9.68S203.42,429.74,203.54,426.5Z"/><path class="cls-8" d="M218,341c.2-2.36-1.44-5-3-5-1.77,0-3.73,3.33-3,6,.36,1.34,1.53,3,3,3C216.7,345,217.89,342.73,218,341Z"/><path class="cls-9" d="M214,333c-1.46-.07-1.89-12.73-2-16-.55-16,1.1-35,3-35,1.68,0,3.68,14.95,3,29C217.53,321.57,215.43,333.07,214,333Z"/><path class="cls-4" d="M171,307c.59.05-1.07,9.51,0,25,2,28.54,11.09,47.6,10,48-.92.34-8.7-12.56-12-30C164.68,327,170.16,306.93,171,307Z"/><path class="cls-4" d="M258.47,307c-.6.05,1.06,9.51,0,25-2,28.54-11.1,47.6-10,48,.92.34,8.7-12.56,12-30C264.82,327,259.34,306.93,258.47,307Z"/></g></g></svg>